<?xml version="1.0" encoding="utf-8"?>
<!-- Generator: Adobe Illustrator 25.0.0, SVG Export Plug-In . SVG Version: 6.00 Build 0)  -->
<svg version="1.1" id="Ebene_1" xmlns="http://www.w3.org/2000/svg" xmlns:xlink="http://www.w3.org/1999/xlink" x="0px" y="0px"
	 viewBox="0 0 1024 1024" enable-background="new 0 0 1024 1024" xml:space="preserve">
<g>
	<path fill="#202B37" d="M508.89,1018c-3.56,0-7.13-0.92-10.32-2.77L78.23,772.55c-6.39-3.69-10.32-10.5-10.32-17.88V269.32
		c0-7.37,3.94-14.19,10.32-17.88L498.57,8.76c6.34-3.66,14.15-3.69,20.52-0.07l299.8,170.41c9.91,5.63,13.38,18.24,7.75,28.15
		c-5.64,9.92-18.26,13.37-28.15,7.75L508.97,50.43L109.2,281.24v461.52l399.69,230.76l399.69-230.76V357.09
		c0-11.4,9.24-20.64,20.64-20.64c11.4,0,20.64,9.24,20.64,20.64v397.59c0,7.38-3.93,14.19-10.32,17.88l-420.33,242.68
		C516.01,1017.08,512.45,1018,508.89,1018z"/>
</g>
<g>
	<g>
		<path fill="#202B37" d="M509.41,713.87c-11.05,0-20.04-8.93-20.1-20l-1.01-192.81c-0.04-7.4,4-14.23,10.5-17.76l106.67-58.02
			c9.74-5.3,21.96-1.7,27.26,8.06c5.3,9.75,1.7,21.96-8.06,27.26l-96.11,52.28l0.95,180.8c0.05,11.09-8.9,20.15-20,20.2
			C509.48,713.87,509.44,713.87,509.41,713.87z"/>
	</g>
	<g>
		<path fill="#202B37" d="M508.38,521.06c-3.42,0-6.88-0.87-10.05-2.7l-84.43-48.83c-9.61-5.55-12.9-17.85-7.34-27.46
			c5.56-9.61,17.85-12.9,27.46-7.34l84.44,48.83c9.6,5.55,12.89,17.85,7.33,27.46C522.07,517.46,515.32,521.06,508.38,521.06z"/>
	</g>
</g>
</svg>
