<?xml version="1.0" encoding="utf-8"?>
<!-- Generator: Adobe Illustrator 25.2.3, SVG Export Plug-In . SVG Version: 6.00 Build 0)  -->
<svg version="1.1" id="Ebene_1" xmlns="http://www.w3.org/2000/svg" xmlns:xlink="http://www.w3.org/1999/xlink" x="0px" y="0px"
	 viewBox="0 0 355 156" style="enable-background:new 0 0 355 156;" xml:space="preserve">
<style type="text/css">
	.st0{fill:#202B37;stroke:#FF00FF;stroke-miterlimit:10;}
	.st1{fill:#81AB44;}
</style>
<g>
	<path class="st0" d="M84.3,148.9"/>
</g>
<g>
	<path class="st1" d="M53.1,81.9c-4.3,0-7.3-2.3-7.3-4.4c0-1.1-0.9-2.1-2.1-2.1s-2.1,0.9-2.1,2.1c0,4.7,5.2,8.6,11.5,8.6
		c3.9,0,7.3-1.2,9.3-3.2c1.3-1.3,2-2.9,2-4.7c0-5.9-5.4-6.9-10.9-7.3l-0.8-0.1c-4-0.3-6.4-0.5-6.4-3.1c0-1.8,2.3-3.7,6.5-3.7
		c3.5,0,6.2,1.5,7.1,3c0.3,0.5,0.7,0.8,1.2,0.9c0.5,0.1,1.1,0.1,1.6-0.2c1-0.6,1.3-1.9,0.7-2.8c-1.8-3-6.1-5-10.6-5
		c-6.2,0-10.6,3.2-10.6,7.9c0,2.8,1.3,4.8,3.9,6c2,0.9,4.6,1.1,6.8,1.3l0.3,0c0.3,0,0.6,0.1,0.9,0.1c3.9,0.3,6.2,0.5,6.2,3.1
		C60.2,80,57.8,81.9,53.1,81.9z"/>
	<path class="st1" d="M105.2,67.7c0,2.8,1.3,4.8,3.9,6c2,0.9,4.6,1.1,6.8,1.3l0.3,0c0.3,0,0.6,0.1,0.9,0.1c3.9,0.3,6.2,0.5,6.2,3.1
		c0,1.8-2.5,3.7-7.1,3.7c-4.3,0-7.3-2.3-7.3-4.4c0-1.1-0.9-2.1-2.1-2.1s-2.1,0.9-2.1,2.1c0,4.7,5.2,8.6,11.5,8.6
		c3.9,0,7.3-1.2,9.3-3.2c1.3-1.3,2-2.9,2-4.7c0-5.9-5.4-6.9-10.9-7.3l-0.8-0.1c-4-0.3-6.4-0.5-6.4-3.1c0-1.8,2.3-3.7,6.5-3.7
		c3.5,0,6.2,1.5,7.1,3c0.3,0.5,0.7,0.8,1.2,0.9c0.5,0.1,1.1,0.1,1.6-0.2c1-0.6,1.3-1.9,0.7-2.8c-1.8-3-6.1-5-10.6-5
		C109.5,59.8,105.2,63.1,105.2,67.7z"/>
	<path class="st1" d="M144.6,59.9c-2.6,0-5.2,1-7.2,2.7V62c0-1.1-1-2.1-2.1-2.1s-2.1,1-2.1,2.1V96c0,0.1,0,0.3,0,0.4
		c0,0.1,0,0.1,0,0.2v12l-48.9,28.2l-48.9-28.2V52.2L84.3,24L119.6,44c1,0.6,2.2,0.2,2.8-0.8c0.6-1,0.2-2.2-0.8-2.8L85.3,19.8
		c-0.6-0.4-1.4-0.4-2,0L32.4,49.2c-0.6,0.4-1,1-1,1.8v58.8c0,0.7,0.4,1.4,1,1.8L83.3,141c0.3,0.2,0.7,0.3,1,0.3s0.7-0.1,1-0.3
		l50.9-29.4c0.6-0.4,1-1,1-1.8V96.6c0,0,0-0.1,0-0.1c0-0.1,0-0.3,0-0.4V83.3c2,1.8,4.6,2.7,7.2,2.7c6.3,0,11.4-5.3,11.4-11.7v-2.7
		C155.9,65.2,150.8,59.9,144.6,59.9z M152,74.3c0,4.3-3.4,7.7-7.5,7.7c-4.1,0-7.5-3.5-7.5-7.7v-2.7c0-4.3,3.4-7.8,7.5-7.8
		c4.1,0,7.5,3.5,7.5,7.8V74.3z"/>
	<path class="st1" d="M184.4,68.4c0-0.1,0-0.3-0.1-0.4c-0.5-4.7-4.8-8.1-10.3-8.1c-4.7,0-8.9,2.4-10.3,6c-0.2,0.5-0.2,1,0,1.5
		c0.2,0.5,0.6,0.9,1,1.1c1,0.4,2.1-0.1,2.6-1.1c0.9-2.1,3.6-3.6,6.7-3.6c4,0,6.3,2.4,6.4,4.7c-0.1,1.1-1.1,2-2.2,2h-8.5
		c-4.2,0-7.6,3.5-7.6,7.7c0,4.3,3.4,7.7,7.6,7.7h3.8c2.5,0,5-0.9,6.9-2.5v0.6c0,1.1,0.9,2,1.9,2c1.1,0,2-0.9,2-2l0-0.1V68.4z
		 M165.8,78.3c0-2.2,1.8-4.1,4-4.1h8.5c0.8,0,1.5-0.1,2.3-0.5l0.1,0h0.1v1.3c0,4-3.2,7.3-7.2,7.3h-3.8
		C167.6,82.4,165.8,80.6,165.8,78.3z"/>
	<path class="st1" d="M215,62c-1.9-1.4-4.3-2.1-6.6-2.1c-2.8,0-5.4,1-7.4,2.8v-0.8c0-1.1-0.9-2-2-2c-1.1,0-1.9,0.9-1.9,2v20.3h-3
		c-1.1,0-2,0.9-2,2s0.9,2,2,2h14.1c1.1,0,2-0.9,2-2s-0.9-2-2-2h-7.2V71.3c0-4.1,3.3-7.5,7.4-7.5c1.6,0,3.1,0.5,4.3,1.4l0,0
		c0.5,0.3,1,0.4,1.5,0.3c0.5-0.1,0.9-0.4,1.2-0.8C216.1,63.9,215.9,62.7,215,62z"/>
	<path class="st1" d="M233.8,59.9c-6.3,0-11.4,5.2-11.4,11.5v3.2c0,6.3,5.1,11.5,11.4,11.5c4.1,0,7.9-2.3,9.9-6
		c0.5-1,0.2-2.2-0.8-2.8c-1-0.5-2.2-0.2-2.8,0.8c-1.3,2.4-3.7,3.8-6.4,3.8c-3.9,0-7.1-3.2-7.2-7.1h16.5c1.1,0,2.1-0.9,2.1-2.1
		C245.2,65.1,240.7,59.9,233.8,59.9z M226.4,70.8c0.3-4,3.6-7.1,7.5-7.1c4.1,0,6.8,2.6,7.4,7l0,0.1h-14.9L226.4,70.8z"/>
	<path class="st1" d="M263.6,59.9c-2.7,0-5.2,0.9-7.2,2.6V62c0-1.1-0.9-2.1-2.1-2.1s-2.1,0.9-2.1,2.1v22c0,1.1,1,2.1,2.1,2.1
		s2.1-1,2.1-2.1V71.4c0-4,3.2-7.3,7.2-7.3s7.2,3.3,7.2,7.3V84c0,1.1,1,2.1,2.1,2.1s2.1-1,2.1-2.1l0-12.6
		C275,65,269.9,59.9,263.6,59.9z"/>
	<path class="st1" d="M294.5,64c2.1,0,4.3,1,5.5,2.6c0.2,0.2,0.3,0.5,0.5,0.7c0.5,0.8,1,1.6,2.1,1.6c1.1,0,2.1-1,2.1-2.1
		c0-0.3-0.1-0.7-0.3-0.9c-1.8-3.6-5.8-6-9.9-6c-6.2,0-11.3,5.2-11.3,11.5v3.2c0,6.3,5.1,11.5,11.3,11.5c4.1,0,8.1-2.4,9.9-6
		c0.2-0.3,0.3-0.7,0.3-1c0-1.1-1-2.1-2.1-2.1c-1.1,0-1.6,0.8-2.1,1.6c-0.2,0.3-0.3,0.5-0.5,0.7c-1.2,1.6-3.4,2.6-5.5,2.6
		c-4,0-7.2-3.3-7.2-7.3v-3.2C287.2,67.3,290.5,64,294.5,64z"/>
	<path class="st1" d="M333.8,61.2c-0.2-0.5-0.6-0.9-1.1-1.1c-0.5-0.2-1-0.3-1.5-0.1c-0.5,0.2-1,0.6-1.2,1.2l-7.4,18l-7.4-18
		c-0.2-0.5-0.6-1-1.2-1.2c-0.5-0.2-1-0.2-1.5,0.1c-1.1,0.4-1.6,1.7-1.1,2.7l9,21.8L316,95.3c-0.3,0.7-0.2,1.4,0.2,2
		c0.4,0.6,1,0.9,1.7,0.9c0.8,0,1.6-0.5,1.9-1.3l14-34.1C334,62.3,334,61.7,333.8,61.2z"/>
	<path class="st1" d="M99,73.8c-0.6-1-1.8-1.4-2.8-0.8l-12.2,6.6l-9.5-5.5c-1-0.6-2.3-0.2-2.9,0.8c-0.6,1-0.2,2.3,0.8,2.9l9.5,5.5
		l0.1,22.5c0,1.2,0.9,2.1,2.1,2.1c0,0,0,0,0,0c1.2,0,2.1-1,2.1-2.1L86,83.3l12.2-6.6C99.2,76.1,99.6,74.8,99,73.8z"/>
</g>
<g>
	<path class="st0" d="M83.6,145.9"/>
</g>
</svg>
