<?xml version="1.0" encoding="UTF-8"?> <!-- Generator: Adobe Illustrator 25.0.0, SVG Export Plug-In . SVG Version: 6.00 Build 0) --> <svg xmlns="http://www.w3.org/2000/svg" xmlns:xlink="http://www.w3.org/1999/xlink" version="1.1" id="Ebene_1" x="0px" y="0px" viewBox="0 0 355 156" xml:space="preserve"> <polyline fill="none" stroke="#202B37" stroke-width="4.68" stroke-linecap="round" stroke-linejoin="round" stroke-miterlimit="10" points=" 120.71,42.28 84.4,21.64 33.49,51.03 33.49,109.82 84.4,139.21 135.31,109.82 135.31,96.66 "></polyline> <g> <path fill="#202B37" stroke="#202B37" stroke-width="0.75" stroke-miterlimit="10" d="M53.09,85.94c-5.94,0-11.36-3.52-11.36-8.47 c0-1.1,0.89-1.95,1.95-1.95c1.05,0,1.95,0.84,1.95,1.95c0,2.1,3,4.57,7.47,4.57c4.84,0,7.26-1.95,7.26-3.84 c0-2.94-2.84-2.94-7.26-3.31c-2.31-0.21-4.94-0.42-7.05-1.31c-2.21-1-3.79-2.79-3.79-5.89c0-4.78,4.68-7.73,10.46-7.73 c4.36,0,8.62,1.89,10.46,4.94c0.58,0.89,0.26,2.1-0.63,2.68c-0.89,0.53-2.1,0.26-2.63-0.68c-1-1.63-3.89-3.05-7.2-3.05 c-4.31,0-6.63,1.95-6.63,3.84c0,2.89,2.84,2.94,7.31,3.31c5.15,0.42,10.83,1.21,10.83,7.2C64.24,83.05,59.19,85.94,53.09,85.94z"></path> <path fill="#202B37" stroke="#202B37" stroke-width="0.75" stroke-miterlimit="10" d="M116.12,85.94c-5.94,0-11.36-3.52-11.36-8.47 c0-1.1,0.89-1.95,1.95-1.95c1.05,0,1.95,0.84,1.95,1.95c0,2.1,3,4.57,7.47,4.57c4.84,0,7.26-1.95,7.26-3.84 c0-2.94-2.84-2.94-7.26-3.31c-2.31-0.21-4.94-0.42-7.05-1.31c-2.21-1-3.79-2.79-3.79-5.89c0-4.78,4.68-7.73,10.46-7.73 c4.36,0,8.62,1.89,10.46,4.94c0.58,0.89,0.26,2.1-0.63,2.68c-0.89,0.53-2.1,0.26-2.63-0.68c-1-1.63-3.89-3.05-7.2-3.05 c-4.31,0-6.63,1.95-6.63,3.84c0,2.89,2.84,2.94,7.31,3.31c5.15,0.42,10.83,1.21,10.83,7.2C127.27,83.05,122.22,85.94,116.12,85.94z "></path> <path fill="#202B37" stroke="#202B37" stroke-width="0.75" stroke-miterlimit="10" d="M155.81,74.32c0,6.41-5.05,11.62-11.25,11.62 c-2.73,0-5.36-1.05-7.36-2.89v12.99c0,1.1-0.89,2-1.95,2s-1.95-0.89-1.95-2V61.96c0-1.05,0.89-1.95,1.95-1.95s1.95,0.89,1.95,1.95 v0.89c2-1.79,4.63-2.84,7.36-2.84c6.21,0,11.25,5.21,11.25,11.62V74.32z M151.91,71.64c0-4.21-3.31-7.68-7.36-7.68 s-7.36,3.47-7.36,7.68v2.68c0,4.21,3.31,7.62,7.36,7.62s7.36-3.42,7.36-7.62V71.64z"></path> <path fill="#202B37" stroke="#202B37" stroke-width="0.75" stroke-miterlimit="10" d="M184.25,84.1c0,1-0.79,1.84-1.84,1.84 c-1,0-1.79-0.84-1.79-1.84v-0.84c-1.89,1.68-4.37,2.68-7.05,2.68h-3.79c-4.15,0-7.52-3.42-7.52-7.62c0-4.21,3.37-7.62,7.52-7.62 h8.52c1.21,0,2.21-0.95,2.31-2.16c-0.16-2.47-2.52-4.84-6.57-4.84c-3.26,0-5.99,1.63-6.84,3.68c-0.42,0.95-1.47,1.37-2.42,1 c-0.89-0.37-1.37-1.47-0.95-2.42c1.47-3.63,5.63-5.94,10.2-5.94c5.42,0,9.68,3.37,10.15,7.99c0.05,0.1,0.05,0.26,0.05,0.37v0.21 v0.16v6.36V84.1z M180.63,73.9c-0.74,0.32-1.47,0.47-2.31,0.47h-8.52c-2.16,0-3.89,1.79-3.89,3.94c0,2.16,1.74,3.94,3.89,3.94h3.79 c3.89,0,7.05-3.21,7.05-7.15V73.9z"></path> <path fill="#202B37" stroke="#202B37" stroke-width="0.75" stroke-miterlimit="10" d="M212.81,65.12 c-1.26-0.95-2.79-1.42-4.42-1.42c-4.15,0-7.57,3.42-7.57,7.62v10.94h7.36c1,0,1.84,0.84,1.84,1.84c0,1-0.84,1.84-1.84,1.84h-9.2 h-4.94c-1,0-1.84-0.84-1.84-1.84c0-1,0.84-1.84,1.84-1.84h3.15V71.32v-9.47c0-1.05,0.79-1.84,1.79-1.84c1,0,1.84,0.79,1.84,1.84 v1.1c2-1.84,4.68-2.94,7.57-2.94c2.37,0,4.68,0.74,6.57,2.1c0.84,0.63,1,1.73,0.42,2.58C214.81,65.54,213.65,65.7,212.81,65.12z"></path> <path fill="#202B37" stroke="#202B37" stroke-width="0.75" stroke-miterlimit="10" d="M243.15,74.74h-16.67 c0.05,4.05,3.37,7.31,7.36,7.31c2.68,0,5.15-1.47,6.47-3.89c0.53-0.89,1.68-1.26,2.63-0.74c0.89,0.53,1.26,1.68,0.74,2.63 c-2,3.63-5.73,5.89-9.83,5.89c-6.2,0-11.25-5.1-11.25-11.36v-3.21c0-6.31,5.05-11.36,11.25-11.36c6.68,0,11.25,5.1,11.25,12.78 C245.1,73.9,244.2,74.74,243.15,74.74z M241.1,70.85c-0.63-4.57-3.42-6.94-7.26-6.94c-3.89,0-7.1,3.05-7.36,6.94H241.1z"></path> <path fill="#202B37" stroke="#202B37" stroke-width="0.75" stroke-miterlimit="10" d="M274.86,84c0,1.05-0.89,1.95-1.95,1.95 c-1.05,0-1.95-0.89-1.95-1.95V71.38c0-4.1-3.31-7.47-7.36-7.47c-4.05,0-7.36,3.37-7.36,7.47V84c0,1.05-0.89,1.95-1.95,1.95 s-1.95-0.89-1.95-1.95V61.96c0-1.1,0.89-1.95,1.95-1.95s1.95,0.84,1.95,1.95v0.84c2-1.79,4.63-2.79,7.36-2.79 c6.21,0,11.25,5.1,11.25,11.36V84z"></path> <path fill="#202B37" stroke="#202B37" stroke-width="0.75" stroke-miterlimit="10" d="M304.25,80.05 c-1.84,3.63-5.84,5.89-9.78,5.89c-6.15,0-11.2-5.1-11.2-11.36v-3.21c0-6.26,5.05-11.36,11.2-11.36c3.94,0,7.94,2.26,9.78,5.89 c0.16,0.26,0.26,0.58,0.26,0.89c0,1.05-0.89,1.95-1.95,1.95c-1.37,0-1.79-1.31-2.52-2.21c-1.26-1.63-3.47-2.63-5.57-2.63 c-4.05,0-7.36,3.37-7.36,7.47v3.21c0,4.1,3.31,7.47,7.36,7.47c2.1,0,4.31-1,5.57-2.63c0.74-0.89,1.16-2.26,2.52-2.26 c1.05,0,1.95,0.89,1.95,1.95C304.52,79.47,304.41,79.79,304.25,80.05z"></path> <path fill="#202B37" stroke="#202B37" stroke-width="0.75" stroke-miterlimit="10" d="M319.66,96.83 c-0.31,0.79-1.05,1.21-1.79,1.21c-1.31,0-2.31-1.42-1.79-2.73l4.42-10.73l-8.99-21.82c-0.42-1,0.05-2.16,1.05-2.58 c0.95-0.47,2.1,0,2.52,1.05l7.52,18.3l7.52-18.3c0.42-1.05,1.58-1.53,2.52-1.05c1,0.42,1.47,1.58,1.05,2.58L319.66,96.83z"></path> </g> <g> <polyline fill="none" stroke="#202B37" stroke-width="5" stroke-linecap="round" stroke-linejoin="round" stroke-miterlimit="10" points=" 97.17,74.83 83.9,82.04 84.03,106.03 "></polyline> <line fill="none" stroke="#202B37" stroke-width="5" stroke-linecap="round" stroke-linejoin="round" stroke-miterlimit="10" x1="73.4" y1="75.97" x2="83.9" y2="82.04"></line> </g> <path fill="none" stroke="#FF00FF" stroke-miterlimit="10" d="M84.28,81.58"></path> <path fill="none" stroke="#FF00FF" stroke-miterlimit="10" d="M84.26,148.86"></path> <path fill="none" stroke="#FF00FF" stroke-miterlimit="10" d="M84.03,81.57"></path> <path fill="#E2E2E3" stroke="#E2E2E3" stroke-miterlimit="10" d="M150.88,47.4"></path> <path fill="none" stroke="#FF00FF" stroke-miterlimit="10" d="M83.57,81.11"></path> <path fill="none" stroke="#FF00FF" stroke-miterlimit="10" d="M83.63,145.93"></path> </svg> 