<?xml version="1.0" encoding="utf-8"?>
<!-- Generator: Adobe Illustrator 26.0.3, SVG Export Plug-In . SVG Version: 6.00 Build 0)  -->
<svg version="1.1" id="Ebene_1" xmlns="http://www.w3.org/2000/svg" xmlns:xlink="http://www.w3.org/1999/xlink" x="0px" y="0px"
	 viewBox="0 0 100 100" style="enable-background:new 0 0 100 100;" xml:space="preserve">
<style type="text/css">
	.st0{fill:none;stroke:#EEEEEE;stroke-linecap:round;stroke-linejoin:round;stroke-miterlimit:10;}
</style>
<g>
	<g>
		<polyline class="st0" points="88.6,83.2 59.5,89.6 61.5,59.8 		"/>
		<path class="st0" d="M59.6,89.3C84,68.6,87.9,32,67.2,7.6"/>
	</g>
	<polyline class="st0" points="33.6,99 38.1,99 38.1,94.5 	"/>
	<polyline class="st0" points="15.8,99 11.4,99 11.4,94.5 	"/>
	<line class="st0" x1="38.1" y1="85.6" x2="38.1" y2="85.6"/>
	<line class="st0" x1="24.7" y1="99" x2="24.7" y2="99"/>
	<line class="st0" x1="24.7" y1="72.3" x2="24.7" y2="72.3"/>
	<polyline class="st0" points="15.8,72.3 11.4,72.3 11.4,76.7 	"/>
	<polyline class="st0" points="33.6,72.3 38.1,72.3 38.1,76.7 	"/>
	<line class="st0" x1="11.4" y1="85.6" x2="11.4" y2="85.6"/>
	<polyline class="st0" points="33.6,63.4 38.1,63.4 38.1,58.9 	"/>
	<polyline class="st0" points="15.8,63.4 11.4,63.4 11.4,58.9 	"/>
	<line class="st0" x1="38.1" y1="50" x2="38.1" y2="50"/>
	<line class="st0" x1="24.7" y1="63.4" x2="24.7" y2="63.4"/>
	<line class="st0" x1="24.7" y1="36.6" x2="24.7" y2="36.6"/>
	<polyline class="st0" points="15.8,36.6 11.4,36.6 11.4,41.1 	"/>
	<polyline class="st0" points="33.6,36.6 38.1,36.6 38.1,41.1 	"/>
	<line class="st0" x1="11.4" y1="50" x2="11.4" y2="50"/>
	<rect x="11.4" y="1" class="st0" width="26.7" height="26.7"/>
</g>
</svg>
