<?xml version="1.0" encoding="utf-8"?>
<!-- Generator: Adobe Illustrator 26.0.3, SVG Export Plug-In . SVG Version: 6.00 Build 0)  -->
<svg version="1.1" id="Ebene_1" xmlns="http://www.w3.org/2000/svg" xmlns:xlink="http://www.w3.org/1999/xlink" x="0px" y="0px"
	 viewBox="0 0 100 100" style="enable-background:new 0 0 100 100;" xml:space="preserve">
<style type="text/css">
	.st0{fill:none;stroke:#EEEEEE;stroke-linecap:round;stroke-linejoin:round;stroke-miterlimit:10;}
</style>
<g>
	<path class="st0" d="M49.9,79.7H9.5c-4.7,0-8.5-3.8-8.5-8.5V11.5C0.9,6.8,4.8,3,9.5,3h81c4.7,0,8.5,3.8,8.5,8.5v32"/>
	<line class="st0" x1="0.9" y1="24.3" x2="98.9" y2="24.3"/>
	<circle class="st0" cx="15.8" cy="13.6" r="2.1"/>
	<circle class="st0" cx="28.6" cy="13.6" r="2.1"/>
	<circle class="st0" cx="41.4" cy="13.6" r="2.1"/>
	<line class="st0" x1="77.6" y1="37.1" x2="35" y2="37.1"/>
	<line class="st0" x1="18" y1="37.1" x2="22.2" y2="37.1"/>
	<line class="st0" x1="52.1" y1="49.8" x2="35" y2="49.8"/>
	<line class="st0" x1="18" y1="49.8" x2="22.2" y2="49.8"/>
	<line class="st0" x1="52.1" y1="62.6" x2="35" y2="62.6"/>
	<line class="st0" x1="18" y1="62.6" x2="22.2" y2="62.6"/>
	<path class="st0" d="M98.9,92.4c0-10.6-8.6-19.2-19.2-19.2s-19.2,8.6-19.2,19.2H98.9z"/>
	<circle class="st0" cx="79.8" cy="61.6" r="11.7"/>
</g>
</svg>
