<?xml version="1.0" encoding="utf-8"?>
<!-- Generator: Adobe Illustrator 26.0.3, SVG Export Plug-In . SVG Version: 6.00 Build 0)  -->
<svg version="1.1" id="Ebene_1" xmlns="http://www.w3.org/2000/svg" xmlns:xlink="http://www.w3.org/1999/xlink" x="0px" y="0px"
	 viewBox="0 0 100 100" style="enable-background:new 0 0 100 100;" xml:space="preserve">
<style type="text/css">
	.st0{fill:#EEEEEE;}
</style>
<g>
	<g>
		<g>
			<path class="st0" d="M74.5,84.7c-0.5,0-1-0.2-1.4-0.6l-8.2-8.2c-0.8-0.8-0.8-2.1,0-2.9c0.8-0.8,2.1-0.8,2.9,0l6.7,6.7L85.3,69
				c0.8-0.8,2.1-0.8,2.9,0c0.8,0.8,0.8,2.1,0,2.9L75.9,84.1C75.5,84.5,75,84.7,74.5,84.7z"/>
		</g>
		<g>
			<path class="st0" d="M76.5,99c-12.4,0-22.5-10.1-22.5-22.5c0-12.4,10.1-22.5,22.5-22.5S99,64.2,99,76.5C99,88.9,88.9,99,76.5,99z
				 M76.5,58.2c-10.1,0-18.4,8.2-18.4,18.4s8.2,18.4,18.4,18.4s18.4-8.2,18.4-18.4S86.7,58.2,76.5,58.2z"/>
		</g>
	</g>
	<g>
		<g>
			<path class="st0" d="M48,82.7H11.2C5.6,82.7,1,78.1,1,72.5V11.2C1,5.6,5.6,1,11.2,1h57.2C74,1,78.6,5.6,78.6,11.2V48
				c0,1.1-0.9,2-2,2c-1.1,0-2-0.9-2-2V11.2c0-3.4-2.7-6.1-6.1-6.1H11.2c-3.4,0-6.1,2.7-6.1,6.1v61.3c0,3.4,2.7,6.1,6.1,6.1H48
				c1.1,0,2,0.9,2,2C50,81.8,49.1,82.7,48,82.7z"/>
		</g>
		<g>
			<path class="st0" d="M76.5,29.6H3c-1.1,0-2-0.9-2-2s0.9-2,2-2h73.5c1.1,0,2,0.9,2,2S77.7,29.6,76.5,29.6z"/>
		</g>
		<g>
			<path class="st0" d="M52,58.2H3c-1.1,0-2-0.9-2-2c0-1.1,0.9-2,2-2h49c1.1,0,2,0.9,2,2C54.1,57.3,53.2,58.2,52,58.2z"/>
		</g>
		<g>
			<path class="st0" d="M52,58.2c-1.1,0-2-0.9-2-2V3c0-1.1,0.9-2,2-2c1.1,0,2,0.9,2,2v53.1C54.1,57.3,53.2,58.2,52,58.2z"/>
		</g>
		<g>
			<path class="st0" d="M27.5,82.7c-1.1,0-2-0.9-2-2V3c0-1.1,0.9-2,2-2c1.1,0,2,0.9,2,2v77.6C29.6,81.8,28.7,82.7,27.5,82.7z"/>
		</g>
	</g>
</g>
</svg>
